STARTFONT 2.3
FONT -FontForge-Monoton-Book-R-Normal--9-90-72-72-P-60-ISO10646-1
SIZE 9 72 72  2
FONTBOUNDINGBOX 17 15 -1 -4
COMMENT "Generated by fontforge, http://fontforge.sourceforge.net"
COMMENT "Copyright (c) 2011 by vernon adams. All rights reserved."
STARTPROPERTIES 41
FOUNDRY "FontForge"
FAMILY_NAME "Monoton"
WEIGHT_NAME "Book"
SLANT "R"
SETWIDTH_NAME "Normal"
ADD_STYLE_NAME ""
PIXEL_SIZE 9
POINT_SIZE 90
RESOLUTION_X 72
RESOLUTION_Y 72
SPACING "P"
AVERAGE_WIDTH 60
CHARSET_REGISTRY "ISO10646"
CHARSET_ENCODING "1"
FONTNAME_REGISTRY ""
CHARSET_COLLECTIONS "ISO8859-2 ISO8859-9 ISO8859-4 ISO10646-1"
BITS_PER_PIXEL 2
FONT_NAME "Monoton-Regular"
FACE_NAME "Monoton"
COPYRIGHT "Copyright (c) 2011 by vernon adams. All rights reserved."
FONT_VERSION "1.000"
FONT_ASCENT 7
FONT_DESCENT 2
UNDERLINE_POSITION 0
UNDERLINE_THICKNESS 1
X_HEIGHT 6
CAP_HEIGHT 7
DEFAULT_CHAR 1
RAW_ASCENT 799
RAW_DESCENT 200
NORM_SPACE 1
RELATIVE_WEIGHT 40
RELATIVE_SETWIDTH 50
SUPERSCRIPT_X 0
SUPERSCRIPT_Y 3
SUPERSCRIPT_SIZE 5
SUBSCRIPT_X 0
SUBSCRIPT_Y 0
SUBSCRIPT_SIZE 5
AVG_LOWERCASE_WIDTH 65
AVG_UPPERCASE_WIDTH 70
ENDPROPERTIES
CHARS 372
STARTCHAR glyph1.dup1
ENCODING 0
SWIDTH 108 0
DWIDTH 1 0
BBX 1 1 0 0
BITMAP
00
ENDCHAR
STARTCHAR uni0002
ENCODING 2
SWIDTH 108 0
DWIDTH 1 0
BBX 1 1 0 0
BITMAP
00
ENDCHAR
STARTCHAR uni0009
ENCODING 9
SWIDTH 108 0
DWIDTH 1 0
BBX 1 1 0 0
BITMAP
00
ENDCHAR
STARTCHAR uni000A
ENCODING 10
SWIDTH 108 0
DWIDTH 1 0
BBX 1 1 0 0
BITMAP
00
ENDCHAR
STARTCHAR uni000D
ENCODING 13
SWIDTH 108 0
DWIDTH 1 0
BBX 1 1 0 0
BITMAP
00
ENDCHAR
STARTCHAR space
ENCODING 32
SWIDTH 108 0
DWIDTH 1 0
BBX 1 1 0 0
BITMAP
00
ENDCHAR
STARTCHAR exclam
ENCODING 33
SWIDTH 336 0
DWIDTH 3 0
BBX 3 9 0 -1
BITMAP
10
64
64
64
64
64
54
54
54
ENDCHAR
STARTCHAR quotedbl
ENCODING 34
SWIDTH 538 0
DWIDTH 5 0
BBX 5 4 0 4
BITMAP
1000
6240
6240
5140
ENDCHAR
STARTCHAR numbersign
ENCODING 35
SWIDTH 1014 0
DWIDTH 9 0
BBX 9 9 0 -1
BITMAP
014500
064940
199540
165540
091800
196500
555500
595500
145000
ENDCHAR
STARTCHAR dollar
ENCODING 36
SWIDTH 686 0
DWIDTH 6 0
BBX 6 9 0 0
BITMAP
0500
0540
5A50
6540
6540
5650
0560
1A90
6590
ENDCHAR
STARTCHAR percent
ENCODING 37
SWIDTH 1504 0
DWIDTH 14 0
BBX 14 9 0 -1
BITMAP
05000000
69854000
65560000
65561A40
5A996580
15559650
00186940
00246540
00140400
ENDCHAR
STARTCHAR ampersand
ENCODING 38
SWIDTH 1029 0
DWIDTH 9 0
BBX 9 8 0 0
BITMAP
054000
155600
6A9600
655640
596640
655640
555940
1A9640
ENDCHAR
STARTCHAR quotesingle
ENCODING 39
SWIDTH 257 0
DWIDTH 2 0
BBX 2 4 0 4
BITMAP
10
60
60
50
ENDCHAR
STARTCHAR parenleft
ENCODING 40
SWIDTH 410 0
DWIDTH 4 0
BBX 4 9 0 -1
BITMAP
04
29
64
64
64
64
64
19
04
ENDCHAR
STARTCHAR parenright
ENCODING 41
SWIDTH 408 0
DWIDTH 4 0
BBX 4 9 0 -1
BITMAP
50
54
55
25
25
25
65
54
50
ENDCHAR
STARTCHAR asterisk
ENCODING 42
SWIDTH 664 0
DWIDTH 6 0
BBX 6 5 0 1
BITMAP
1540
5950
2A80
6590
0500
ENDCHAR
STARTCHAR plus
ENCODING 43
SWIDTH 601 0
DWIDTH 5 0
BBX 5 5 0 1
BITMAP
1500
6640
6640
1600
0100
ENDCHAR
STARTCHAR comma
ENCODING 44
SWIDTH 252 0
DWIDTH 2 0
BBX 2 3 0 -1
BITMAP
50
60
50
ENDCHAR
STARTCHAR hyphen
ENCODING 45
SWIDTH 473 0
DWIDTH 4 0
BBX 4 2 0 3
BITMAP
55
55
ENDCHAR
STARTCHAR period
ENCODING 46
SWIDTH 255 0
DWIDTH 2 0
BBX 2 2 0 0
BITMAP
50
60
ENDCHAR
STARTCHAR slash
ENCODING 47
SWIDTH 447 0
DWIDTH 4 0
BBX 4 8 0 -1
BITMAP
09
15
18
18
24
54
60
60
ENDCHAR
STARTCHAR zero
ENCODING 48
SWIDTH 843 0
DWIDTH 8 0
BBX 8 9 0 -1
BITMAP
0540
16A4
6998
6425
6425
6458
66A8
1960
0140
ENDCHAR
STARTCHAR one
ENCODING 49
SWIDTH 426 0
DWIDTH 4 0
BBX 4 8 0 0
BITMAP
54
54
69
19
19
19
19
19
ENDCHAR
STARTCHAR two
ENCODING 50
SWIDTH 583 0
DWIDTH 5 0
BBX 5 8 0 0
BITMAP
5500
6940
5580
0680
1A40
2900
5540
6A40
ENDCHAR
STARTCHAR three
ENCODING 51
SWIDTH 612 0
DWIDTH 6 0
BBX 5 9 0 -1
BITMAP
5500
6940
5680
1640
1980
1640
6980
5640
1400
ENDCHAR
STARTCHAR four
ENCODING 52
SWIDTH 622 0
DWIDTH 6 0
BBX 6 7 0 0
BITMAP
0940
1600
2500
5980
6A90
5540
0080
ENDCHAR
STARTCHAR five
ENCODING 53
SWIDTH 691 0
DWIDTH 6 0
BBX 6 9 0 -1
BITMAP
1540
5540
6540
6540
6550
1560
1A50
6550
0500
ENDCHAR
STARTCHAR six
ENCODING 54
SWIDTH 781 0
DWIDTH 7 0
BBX 7 9 0 -1
BITMAP
0540
2690
6940
6550
6554
6564
5AA4
1950
0140
ENDCHAR
STARTCHAR seven
ENCODING 55
SWIDTH 631 0
DWIDTH 6 0
BBX 6 8 0 0
BITMAP
5400
5650
5580
0640
0640
0940
1600
1600
ENDCHAR
STARTCHAR eight
ENCODING 56
SWIDTH 808 0
DWIDTH 7 0
BBX 7 9 0 -1
BITMAP
0550
6A94
6558
6958
6694
6558
6A98
2564
0540
ENDCHAR
STARTCHAR nine
ENCODING 57
SWIDTH 782 0
DWIDTH 7 0
BBX 7 9 0 -1
BITMAP
0540
5660
65A4
6564
5664
0564
0A54
1590
0100
ENDCHAR
STARTCHAR colon
ENCODING 58
SWIDTH 262 0
DWIDTH 2 0
BBX 2 5 0 1
BITMAP
50
50
10
60
50
ENDCHAR
STARTCHAR semicolon
ENCODING 59
SWIDTH 261 0
DWIDTH 2 0
BBX 2 6 0 0
BITMAP
50
50
10
60
20
50
ENDCHAR
STARTCHAR less
ENCODING 60
SWIDTH 670 0
DWIDTH 6 0
BBX 6 7 0 0
BITMAP
0050
1650
5990
6540
5690
0550
0050
ENDCHAR
STARTCHAR equal
ENCODING 61
SWIDTH 473 0
DWIDTH 4 0
BBX 4 5 0 1
BITMAP
55
55
15
69
55
ENDCHAR
STARTCHAR greater
ENCODING 62
SWIDTH 670 0
DWIDTH 6 0
BBX 6 7 0 0
BITMAP
5000
5940
6550
0650
6990
5500
5000
ENDCHAR
STARTCHAR question
ENCODING 63
SWIDTH 693 0
DWIDTH 6 0
BBX 6 8 0 0
BITMAP
1540
5A50
1560
1560
2650
2540
1400
2400
ENDCHAR
STARTCHAR at
ENCODING 64
SWIDTH 1076 0
DWIDTH 10 0
BBX 10 9 0 -1
BITMAP
059400
165A40
555580
65A950
655950
656550
255A80
19A000
015000
ENDCHAR
STARTCHAR A
ENCODING 65
SWIDTH 936 0
DWIDTH 8 0
BBX 8 8 0 0
BITMAP
0100
0590
0660
0994
1658
2565
5999
6416
ENDCHAR
STARTCHAR B
ENCODING 66
SWIDTH 862 0
DWIDTH 8 0
BBX 8 8 0 0
BITMAP
1540
5554
6A95
6555
6565
6565
6555
66A4
ENDCHAR
STARTCHAR C
ENCODING 67
SWIDTH 852 0
DWIDTH 8 0
BBX 7 9 0 -1
BITMAP
0550
1A94
6964
6400
6400
6410
2694
1964
0140
ENDCHAR
STARTCHAR D
ENCODING 68
SWIDTH 886 0
DWIDTH 8 0
BBX 8 8 0 0
BITMAP
1540
5564
6A99
6419
6419
6555
6568
6A90
ENDCHAR
STARTCHAR E
ENCODING 69
SWIDTH 706 0
DWIDTH 6 0
BBX 6 8 0 0
BITMAP
1550
6550
6550
6500
6500
6400
6550
6AA0
ENDCHAR
STARTCHAR F
ENCODING 70
SWIDTH 683 0
DWIDTH 6 0
BBX 6 8 0 0
BITMAP
1550
6550
6550
6400
6A90
6550
6400
6400
ENDCHAR
STARTCHAR G
ENCODING 71
SWIDTH 908 0
DWIDTH 8 0
BBX 8 9 0 -1
BITMAP
0550
1A94
6964
6400
6415
6416
26A6
1966
0140
ENDCHAR
STARTCHAR H
ENCODING 72
SWIDTH 901 0
DWIDTH 8 0
BBX 8 8 0 0
BITMAP
1000
6419
6419
6559
6569
6419
6419
6419
ENDCHAR
STARTCHAR I
ENCODING 73
SWIDTH 338 0
DWIDTH 3 0
BBX 3 8 0 0
BITMAP
10
64
64
64
64
64
64
64
ENDCHAR
STARTCHAR J
ENCODING 74
SWIDTH 434 0
DWIDTH 4 0
BBX 4 8 0 -1
BITMAP
19
19
19
19
19
65
64
40
ENDCHAR
STARTCHAR K
ENCODING 75
SWIDTH 815 0
DWIDTH 7 0
BBX 7 8 0 0
BITMAP
1004
6464
6554
6590
6650
6590
6494
6468
ENDCHAR
STARTCHAR L
ENCODING 76
SWIDTH 604 0
DWIDTH 5 0
BBX 5 8 0 0
BITMAP
1000
6400
6400
6400
6400
6400
6540
6A80
ENDCHAR
STARTCHAR M
ENCODING 77
SWIDTH 920 0
DWIDTH 8 0
BBX 8 8 0 0
BITMAP
0004
6416
6819
6956
6666
6666
6416
6416
ENDCHAR
STARTCHAR N
ENCODING 78
SWIDTH 877 0
DWIDTH 8 0
BBX 8 8 0 0
BITMAP
0400
6519
6619
6A59
6559
65A5
6495
6459
ENDCHAR
STARTCHAR O
ENCODING 79
SWIDTH 933 0
DWIDTH 8 0
BBX 8 9 0 -1
BITMAP
0550
1A98
6969
6416
640A
6416
26A9
1964
0140
ENDCHAR
STARTCHAR P
ENCODING 80
SWIDTH 850 0
DWIDTH 8 0
BBX 8 8 0 0
BITMAP
1540
5564
6A95
6425
6698
66A4
6400
6400
ENDCHAR
STARTCHAR Q
ENCODING 81
SWIDTH 937 0
DWIDTH 8 0
BBX 8 9 0 -1
BITMAP
0550
1A98
6969
6416
641A
6466
26A9
1964
0154
ENDCHAR
STARTCHAR R
ENCODING 82
SWIDTH 843 0
DWIDTH 8 0
BBX 8 8 0 0
BITMAP
1540
5564
6A94
6565
6558
66A4
6494
6464
ENDCHAR
STARTCHAR S
ENCODING 83
SWIDTH 682 0
DWIDTH 6 0
BBX 6 9 0 -1
BITMAP
1540
5A50
6540
6540
5650
0590
1A90
6590
0500
ENDCHAR
STARTCHAR T
ENCODING 84
SWIDTH 591 0
DWIDTH 5 0
BBX 5 8 0 0
BITMAP
5540
5540
6A40
1900
1900
1900
1900
1900
ENDCHAR
STARTCHAR U
ENCODING 85
SWIDTH 905 0
DWIDTH 8 0
BBX 8 9 0 -1
BITMAP
1000
6419
6419
6419
6419
5419
2A95
1964
0140
ENDCHAR
STARTCHAR V
ENCODING 86
SWIDTH 940 0
DWIDTH 8 0
BBX 8 7 0 0
BITMAP
6816
2519
1965
1664
0994
0660
0290
ENDCHAR
STARTCHAR W
ENCODING 87
SWIDTH 1161 0
DWIDTH 10 0
BBX 10 8 0 0
BITMAP
004000
656560
596590
25AA90
166650
199980
165640
0A4940
ENDCHAR
STARTCHAR X
ENCODING 88
SWIDTH 876 0
DWIDTH 8 0
BBX 8 8 0 0
BITMAP
1000
5958
1994
0590
0590
0964
1964
5565
ENDCHAR
STARTCHAR Y
ENCODING 89
SWIDTH 789 0
DWIDTH 7 0
BBX 7 7 0 0
BITMAP
6464
25A0
1990
0640
0640
0640
0640
ENDCHAR
STARTCHAR Z
ENCODING 90
SWIDTH 854 0
DWIDTH 8 0
BBX 8 8 0 0
BITMAP
5554
5555
6964
0154
1690
5654
6554
6AA9
ENDCHAR
STARTCHAR bracketleft
ENCODING 91
SWIDTH 320 0
DWIDTH 3 0
BBX 3 9 0 -1
BITMAP
54
64
60
60
60
60
60
64
54
ENDCHAR
STARTCHAR backslash
ENCODING 92
SWIDTH 448 0
DWIDTH 4 0
BBX 4 8 0 -1
BITMAP
60
54
24
24
18
15
09
05
ENDCHAR
STARTCHAR bracketright
ENCODING 93
SWIDTH 319 0
DWIDTH 3 0
BBX 3 9 0 -1
BITMAP
54
64
24
24
24
24
24
64
54
ENDCHAR
STARTCHAR asciicircum
ENCODING 94
SWIDTH 475 0
DWIDTH 4 0
BBX 4 3 0 3
BITMAP
18
25
55
ENDCHAR
STARTCHAR underscore
ENCODING 95
SWIDTH 511 0
DWIDTH 5 0
BBX 4 2 0 -2
BITMAP
6A
55
ENDCHAR
STARTCHAR grave
ENCODING 96
SWIDTH 472 0
DWIDTH 4 0
BBX 4 3 0 6
BITMAP
10
55
04
ENDCHAR
STARTCHAR a
ENCODING 97
SWIDTH 832 0
DWIDTH 7 0
BBX 7 7 0 0
BITMAP
0540
1650
5994
6458
6428
6668
1968
ENDCHAR
STARTCHAR b
ENCODING 98
SWIDTH 720 0
DWIDTH 6 0
BBX 6 7 0 0
BITMAP
5540
5550
6540
6690
6540
6540
6010
ENDCHAR
STARTCHAR c
ENCODING 99
SWIDTH 736 0
DWIDTH 7 0
BBX 6 8 0 -1
BITMAP
0540
16A0
5950
6400
6400
5690
1960
0140
ENDCHAR
STARTCHAR d
ENCODING 100
SWIDTH 833 0
DWIDTH 8 0
BBX 7 7 0 0
BITMAP
5540
5564
6A98
6458
6558
6564
6A90
ENDCHAR
STARTCHAR e
ENCODING 101
SWIDTH 666 0
DWIDTH 6 0
BBX 6 7 0 0
BITMAP
1550
6550
6540
6A90
6540
6550
6A90
ENDCHAR
STARTCHAR f
ENCODING 102
SWIDTH 625 0
DWIDTH 6 0
BBX 5 7 0 0
BITMAP
1540
6540
6540
6540
6540
6400
6400
ENDCHAR
STARTCHAR g
ENCODING 103
SWIDTH 827 0
DWIDTH 7 0
BBX 7 8 0 -1
BITMAP
0540
16A0
5950
6400
6458
5698
1998
0140
ENDCHAR
STARTCHAR h
ENCODING 104
SWIDTH 830 0
DWIDTH 7 0
BBX 7 7 0 0
BITMAP
1004
6418
6458
6A98
6558
6418
6418
ENDCHAR
STARTCHAR i
ENCODING 105
SWIDTH 337 0
DWIDTH 3 0
BBX 3 7 0 0
BITMAP
10
64
64
64
64
64
64
ENDCHAR
STARTCHAR j
ENCODING 106
SWIDTH 393 0
DWIDTH 4 0
BBX 3 8 0 -1
BITMAP
10
24
24
24
24
58
54
50
ENDCHAR
STARTCHAR k
ENCODING 107
SWIDTH 801 0
DWIDTH 7 0
BBX 7 7 0 0
BITMAP
1004
64A4
6560
6650
6590
6564
6464
ENDCHAR
STARTCHAR l
ENCODING 108
SWIDTH 583 0
DWIDTH 5 0
BBX 5 7 0 0
BITMAP
1000
6400
6400
6400
6400
6540
6A80
ENDCHAR
STARTCHAR m
ENCODING 109
SWIDTH 1167 0
DWIDTH 11 0
BBX 10 7 0 0
BITMAP
055540
1A6A50
659960
6494A0
6494A0
6494A0
6494A0
ENDCHAR
STARTCHAR n
ENCODING 110
SWIDTH 787 0
DWIDTH 7 0
BBX 7 7 0 0
BITMAP
0410
6524
6624
6964
65A4
61A4
6198
ENDCHAR
STARTCHAR o
ENCODING 111
SWIDTH 833 0
DWIDTH 8 0
BBX 7 8 0 -1
BITMAP
0540
1694
5958
6428
6458
56A4
1950
0140
ENDCHAR
STARTCHAR p
ENCODING 112
SWIDTH 781 0
DWIDTH 7 0
BBX 7 7 0 0
BITMAP
5540
5560
6AA4
6564
66A4
6550
6400
ENDCHAR
STARTCHAR q
ENCODING 113
SWIDTH 788 0
DWIDTH 7 0
BBX 7 8 0 -1
BITMAP
0554
2554
6AA4
6464
6964
2564
0564
0064
ENDCHAR
STARTCHAR r
ENCODING 114
SWIDTH 831 0
DWIDTH 7 0
BBX 7 7 0 0
BITMAP
5540
5564
6A98
6568
6698
65A0
6494
ENDCHAR
STARTCHAR s
ENCODING 115
SWIDTH 683 0
DWIDTH 6 0
BBX 6 7 0 0
BITMAP
0540
5550
6440
5A40
1590
1550
6A90
ENDCHAR
STARTCHAR t
ENCODING 116
SWIDTH 588 0
DWIDTH 5 0
BBX 5 7 0 0
BITMAP
5540
5540
5A40
1900
1900
1900
1900
ENDCHAR
STARTCHAR u
ENCODING 117
SWIDTH 795 0
DWIDTH 7 0
BBX 7 8 0 -1
BITMAP
1000
6464
6464
6464
6464
5A94
1990
0100
ENDCHAR
STARTCHAR v
ENCODING 118
SWIDTH 855 0
DWIDTH 8 0
BBX 8 7 0 0
BITMAP
1010
5825
2564
1994
1660
0990
0650
ENDCHAR
STARTCHAR w
ENCODING 119
SWIDTH 1129 0
DWIDTH 10 0
BBX 10 7 0 0
BITMAP
104000
649550
649550
649550
649590
566990
19A640
ENDCHAR
STARTCHAR x
ENCODING 120
SWIDTH 790 0
DWIDTH 7 0
BBX 7 7 0 0
BITMAP
1410
5554
1690
0980
1950
1A60
5994
ENDCHAR
STARTCHAR y
ENCODING 121
SWIDTH 733 0
DWIDTH 7 0
BBX 6 7 0 0
BITMAP
0040
58A0
2590
1680
0A40
0640
0640
ENDCHAR
STARTCHAR z
ENCODING 122
SWIDTH 714 0
DWIDTH 6 0
BBX 6 7 0 0
BITMAP
5500
5590
5550
0A40
1600
6550
6AA0
ENDCHAR
STARTCHAR braceleft
ENCODING 123
SWIDTH 396 0
DWIDTH 4 0
BBX 4 10 0 -2
BITMAP
04
29
54
54
54
60
54
54
24
15
ENDCHAR
STARTCHAR bar
ENCODING 124
SWIDTH 266 0
DWIDTH 2 0
BBX 2 9 0 -1
BITMAP
10
60
60
60
60
60
60
60
60
ENDCHAR
STARTCHAR braceright
ENCODING 125
SWIDTH 396 0
DWIDTH 4 0
BBX 3 10 0 -2
BITMAP
50
54
24
14
18
14
14
14
64
50
ENDCHAR
STARTCHAR asciitilde
ENCODING 126
SWIDTH 665 0
DWIDTH 6 0
BBX 6 2 0 5
BITMAP
1550
5A90
ENDCHAR
STARTCHAR uni00A0
ENCODING 160
SWIDTH 108 0
DWIDTH 1 0
BBX 1 1 0 0
BITMAP
00
ENDCHAR
STARTCHAR exclamdown
ENCODING 161
SWIDTH 336 0
DWIDTH 3 0
BBX 3 9 0 -1
BITMAP
10
64
64
64
64
64
54
54
54
ENDCHAR
STARTCHAR cent
ENCODING 162
SWIDTH 708 0
DWIDTH 6 0
BBX 6 9 0 -1
BITMAP
0100
1650
1990
6540
6400
5990
1650
0540
0100
ENDCHAR
STARTCHAR sterling
ENCODING 163
SWIDTH 689 0
DWIDTH 6 0
BBX 6 8 0 0
BITMAP
0540
6A50
6540
6540
6540
6540
6540
6A80
ENDCHAR
STARTCHAR currency
ENCODING 164
SWIDTH 715 0
DWIDTH 6 0
BBX 6 7 0 0
BITMAP
1050
5590
2550
2050
2050
5A90
5050
ENDCHAR
STARTCHAR yen
ENCODING 165
SWIDTH 796 0
DWIDTH 7 0
BBX 7 7 0 0
BITMAP
5464
2590
1990
0650
1550
1650
0640
ENDCHAR
STARTCHAR brokenbar
ENCODING 166
SWIDTH 263 0
DWIDTH 2 0
BBX 2 9 0 -1
BITMAP
10
60
60
60
00
50
60
60
60
ENDCHAR
STARTCHAR section
ENCODING 167
SWIDTH 108 0
DWIDTH 1 0
BBX 1 1 0 0
BITMAP
00
ENDCHAR
STARTCHAR dieresis
ENCODING 168
SWIDTH 556 0
DWIDTH 5 0
BBX 5 2 0 6
BITMAP
5140
1100
ENDCHAR
STARTCHAR copyright
ENCODING 169
SWIDTH 869 0
DWIDTH 8 0
BBX 8 8 0 0
BITMAP
0550
1554
5954
9401
9401
5815
2554
0590
ENDCHAR
STARTCHAR ordfeminine
ENCODING 170
SWIDTH 833 0
DWIDTH 8 0
BBX 8 7 0 0
BITMAP
0540
1554
5998
6428
6425
6665
1965
ENDCHAR
STARTCHAR guillemotleft
ENCODING 171
SWIDTH 911 0
DWIDTH 8 0
BBX 8 5 0 1
BITMAP
0101
5919
6565
5555
0505
ENDCHAR
STARTCHAR logicalnot
ENCODING 172
SWIDTH 718 0
DWIDTH 6 0
BBX 6 3 0 2
BITMAP
5550
6AA0
0060
ENDCHAR
STARTCHAR registered
ENCODING 174
SWIDTH 869 0
DWIDTH 8 0
BBX 8 8 0 0
BITMAP
0550
1414
5594
8821
8981
5855
2414
0590
ENDCHAR
STARTCHAR degree
ENCODING 176
SWIDTH 330 0
DWIDTH 3 0
BBX 3 3 0 7
BITMAP
10
54
64
ENDCHAR
STARTCHAR plusminus
ENCODING 177
SWIDTH 598 0
DWIDTH 5 0
BBX 5 6 0 0
BITMAP
1500
6640
6640
1600
1540
1540
ENDCHAR
STARTCHAR uni00B2
ENCODING 178
SWIDTH 435 0
DWIDTH 4 0
BBX 4 7 0 1
BITMAP
14
55
05
18
20
54
54
ENDCHAR
STARTCHAR uni00B3
ENCODING 179
SWIDTH 515 0
DWIDTH 5 0
BBX 5 7 0 1
BITMAP
1000
5900
1600
1900
1540
5940
5500
ENDCHAR
STARTCHAR acute
ENCODING 180
SWIDTH 472 0
DWIDTH 4 0
BBX 4 2 0 6
BITMAP
59
10
ENDCHAR
STARTCHAR uni00B5
ENCODING 181
SWIDTH 802 0
DWIDTH 7 0
BBX 7 8 0 -1
BITMAP
1004
6458
6458
6458
6454
66A4
6590
6500
ENDCHAR
STARTCHAR paragraph
ENCODING 182
SWIDTH 676 0
DWIDTH 6 0
BBX 6 8 0 -1
BITMAP
0550
2550
6A90
6590
6A90
1590
0190
0190
ENDCHAR
STARTCHAR periodcentered
ENCODING 183
SWIDTH 260 0
DWIDTH 2 0
BBX 2 2 0 3
BITMAP
60
50
ENDCHAR
STARTCHAR cedilla
ENCODING 184
SWIDTH 321 0
DWIDTH 3 0
BBX 3 4 0 -4
BITMAP
10
54
50
10
ENDCHAR
STARTCHAR uni00B9
ENCODING 185
SWIDTH 359 0
DWIDTH 3 0
BBX 3 6 0 2
BITMAP
54
54
18
18
18
14
ENDCHAR
STARTCHAR ordmasculine
ENCODING 186
SWIDTH 835 0
DWIDTH 8 0
BBX 8 8 0 -1
BITMAP
0540
1694
5958
6425
6464
66A4
1950
0140
ENDCHAR
STARTCHAR guillemotright
ENCODING 187
SWIDTH 912 0
DWIDTH 8 0
BBX 8 5 0 1
BITMAP
4040
6565
5959
5556
5050
ENDCHAR
STARTCHAR onequarter
ENCODING 188
SWIDTH 1236 0
DWIDTH 11 0
BBX 11 9 0 -1
BITMAP
541000
542400
145450
146150
149294
149154
0152A8
018014
014000
ENDCHAR
STARTCHAR onehalf
ENCODING 189
SWIDTH 1154 0
DWIDTH 10 0
BBX 10 9 0 -1
BITMAP
541000
542400
145550
146160
149050
149080
015140
0186A0
014000
ENDCHAR
STARTCHAR threequarters
ENCODING 190
SWIDTH 1345 0
DWIDTH 12 0
BBX 12 9 0 -1
BITMAP
100000
590900
160914
191554
1558A5
596455
5525AA
005405
006000
ENDCHAR
STARTCHAR questiondown
ENCODING 191
SWIDTH 693 0
DWIDTH 6 0
BBX 6 8 0 0
BITMAP
1540
5A50
1560
1560
2650
2540
1400
2400
ENDCHAR
STARTCHAR Agrave
ENCODING 192
SWIDTH 936 0
DWIDTH 8 0
BBX 8 11 0 0
BITMAP
0400
1540
0100
0100
0590
0660
0994
1658
2565
5999
6416
ENDCHAR
STARTCHAR Aacute
ENCODING 193
SWIDTH 936 0
DWIDTH 8 0
BBX 8 11 0 0
BITMAP
0004
0064
0040
0100
0590
0660
0994
1658
2565
5999
6416
ENDCHAR
STARTCHAR Acircumflex
ENCODING 194
SWIDTH 936 0
DWIDTH 8 0
BBX 8 10 0 0
BITMAP
0180
0150
0000
0590
0660
0994
1658
2565
5999
6416
ENDCHAR
STARTCHAR Atilde
ENCODING 195
SWIDTH 936 0
DWIDTH 8 0
BBX 8 10 0 0
BITMAP
0554
16A4
0100
0590
0660
0994
1658
2565
5999
6416
ENDCHAR
STARTCHAR Adieresis
ENCODING 196
SWIDTH 936 0
DWIDTH 8 0
BBX 8 9 0 0
BITMAP
0514
0550
0590
0660
0994
1658
2565
5999
6416
ENDCHAR
STARTCHAR Aring
ENCODING 197
SWIDTH 936 0
DWIDTH 8 0
BBX 8 11 0 0
BITMAP
0040
0150
0140
0100
0590
0660
0994
1658
2565
5999
6416
ENDCHAR
STARTCHAR AE
ENCODING 198
SWIDTH 1198 0
DWIDTH 11 0
BBX 11 8 0 0
BITMAP
011550
05A550
066550
099550
165950
256500
599950
6416A4
ENDCHAR
STARTCHAR Ccedilla
ENCODING 199
SWIDTH 852 0
DWIDTH 8 0
BBX 7 12 0 -4
BITMAP
0550
1A94
6964
6400
6400
6410
2694
1964
0140
0540
0540
0140
ENDCHAR
STARTCHAR Egrave
ENCODING 200
SWIDTH 706 0
DWIDTH 6 0
BBX 6 11 0 0
BITMAP
1000
5500
0400
1550
6550
6550
6500
6500
6400
6550
6AA0
ENDCHAR
STARTCHAR Eacute
ENCODING 201
SWIDTH 706 0
DWIDTH 6 0
BBX 6 11 0 0
BITMAP
0010
0190
0100
1550
6550
6550
6500
6500
6400
6550
6AA0
ENDCHAR
STARTCHAR Ecircumflex
ENCODING 202
SWIDTH 706 0
DWIDTH 6 0
BBX 6 10 0 0
BITMAP
0500
0540
0150
6550
6550
6500
6500
6400
6550
6AA0
ENDCHAR
STARTCHAR Edieresis
ENCODING 203
SWIDTH 706 0
DWIDTH 6 0
BBX 6 9 0 0
BITMAP
1450
1550
6550
6550
6500
6500
6400
6550
6AA0
ENDCHAR
STARTCHAR Igrave
ENCODING 204
SWIDTH 338 0
DWIDTH 3 0
BBX 4 11 -1 0
BITMAP
40
64
04
04
19
19
19
19
19
19
19
ENDCHAR
STARTCHAR Iacute
ENCODING 205
SWIDTH 338 0
DWIDTH 3 0
BBX 4 11 0 0
BITMAP
01
19
10
10
64
64
64
64
64
64
64
ENDCHAR
STARTCHAR Icircumflex
ENCODING 206
SWIDTH 338 0
DWIDTH 3 0
BBX 3 10 0 0
BITMAP
64
64
00
64
64
64
64
64
64
64
ENDCHAR
STARTCHAR Idieresis
ENCODING 207
SWIDTH 338 0
DWIDTH 3 0
BBX 5 9 -1 0
BITMAP
5140
1500
1900
1900
1900
1900
1900
1900
1900
ENDCHAR
STARTCHAR Eth
ENCODING 208
SWIDTH 905 0
DWIDTH 8 0
BBX 8 8 0 0
BITMAP
1540
5564
5A95
6919
551A
5959
5568
6A94
ENDCHAR
STARTCHAR Ntilde
ENCODING 209
SWIDTH 877 0
DWIDTH 8 0
BBX 8 10 0 0
BITMAP
1554
16A4
0400
6519
6619
6A59
6559
65A5
6495
6459
ENDCHAR
STARTCHAR Ograve
ENCODING 210
SWIDTH 933 0
DWIDTH 8 0
BBX 8 12 0 -1
BITMAP
0400
1540
0100
0550
1A98
6969
6416
640A
6416
26A9
1964
0140
ENDCHAR
STARTCHAR Oacute
ENCODING 211
SWIDTH 933 0
DWIDTH 8 0
BBX 8 12 0 -1
BITMAP
0004
0064
0040
0550
1A98
6969
6416
640A
6416
26A9
1964
0140
ENDCHAR
STARTCHAR Ocircumflex
ENCODING 212
SWIDTH 933 0
DWIDTH 8 0
BBX 8 11 0 -1
BITMAP
0140
0150
0150
1A98
6969
6416
640A
6416
26A9
1964
0140
ENDCHAR
STARTCHAR Otilde
ENCODING 213
SWIDTH 933 0
DWIDTH 8 0
BBX 8 11 0 -1
BITMAP
0554
16A4
0550
1A98
6969
6416
640A
6416
26A9
1964
0140
ENDCHAR
STARTCHAR Odieresis
ENCODING 214
SWIDTH 933 0
DWIDTH 8 0
BBX 8 10 0 -1
BITMAP
0514
0550
1A98
6969
6416
640A
6416
26A9
1964
0140
ENDCHAR
STARTCHAR multiply
ENCODING 215
SWIDTH 790 0
DWIDTH 7 0
BBX 7 7 0 0
BITMAP
1410
5554
1690
0980
1950
1A60
5994
ENDCHAR
STARTCHAR Oslash
ENCODING 216
SWIDTH 938 0
DWIDTH 8 0
BBX 8 9 0 -1
BITMAP
0554
1A98
6969
6416
640A
6416
26A9
1964
1540
ENDCHAR
STARTCHAR Ugrave
ENCODING 217
SWIDTH 905 0
DWIDTH 8 0
BBX 8 12 0 -1
BITMAP
0400
1540
0100
1000
6419
6419
6419
6419
5419
2A95
1964
0140
ENDCHAR
STARTCHAR Uacute
ENCODING 218
SWIDTH 905 0
DWIDTH 8 0
BBX 8 11 0 -1
BITMAP
0164
0040
1000
6419
6419
6419
6419
5419
2A95
1964
0140
ENDCHAR
STARTCHAR Ucircumflex
ENCODING 219
SWIDTH 905 0
DWIDTH 8 0
BBX 8 11 0 -1
BITMAP
0140
0180
1000
6419
6419
6419
6419
5419
2A95
1964
0140
ENDCHAR
STARTCHAR Udieresis
ENCODING 220
SWIDTH 905 0
DWIDTH 8 0
BBX 8 10 0 -1
BITMAP
0550
1414
6419
6419
6419
6419
5419
2A95
1964
0140
ENDCHAR
STARTCHAR Yacute
ENCODING 221
SWIDTH 789 0
DWIDTH 7 0
BBX 7 11 0 0
BITMAP
0010
0190
0100
0000
6464
25A0
1990
0640
0640
0640
0640
ENDCHAR
STARTCHAR Thorn
ENCODING 222
SWIDTH 798 0
DWIDTH 7 0
BBX 7 9 0 -1
BITMAP
5400
6550
6994
6564
6458
65A4
6650
6540
5400
ENDCHAR
STARTCHAR germandbls
ENCODING 223
SWIDTH 826 0
DWIDTH 7 0
BBX 7 9 0 -1
BITMAP
0550
1A94
6558
6558
6698
6558
6568
6690
5400
ENDCHAR
STARTCHAR agrave
ENCODING 224
SWIDTH 832 0
DWIDTH 7 0
BBX 7 10 0 0
BITMAP
1000
1900
0100
0540
1650
5994
6458
6428
6668
1968
ENDCHAR
STARTCHAR aacute
ENCODING 225
SWIDTH 832 0
DWIDTH 7 0
BBX 7 10 0 0
BITMAP
0010
0190
0140
0540
1650
5994
6458
6428
6668
1968
ENDCHAR
STARTCHAR acircumflex
ENCODING 226
SWIDTH 832 0
DWIDTH 7 0
BBX 7 9 0 0
BITMAP
0240
0540
0500
1650
5994
6458
6428
6668
1968
ENDCHAR
STARTCHAR atilde
ENCODING 227
SWIDTH 832 0
DWIDTH 7 0
BBX 7 9 0 0
BITMAP
1554
2690
0540
1650
5994
6458
6428
6668
1968
ENDCHAR
STARTCHAR adieresis
ENCODING 228
SWIDTH 832 0
DWIDTH 7 0
BBX 7 8 0 0
BITMAP
1450
0550
1650
5994
6458
6428
6668
1968
ENDCHAR
STARTCHAR aring
ENCODING 229
SWIDTH 832 0
DWIDTH 7 0
BBX 7 10 0 0
BITMAP
0100
0540
0540
0540
1650
5994
6458
6428
6668
1968
ENDCHAR
STARTCHAR ae
ENCODING 230
SWIDTH 1166 0
DWIDTH 11 0
BBX 10 7 0 0
BITMAP
054550
166950
599950
645AA0
642950
666950
196AA0
ENDCHAR
STARTCHAR ccedilla
ENCODING 231
SWIDTH 736 0
DWIDTH 7 0
BBX 6 11 0 -4
BITMAP
0540
16A0
5950
6400
6400
5690
1960
0240
0500
0500
0100
ENDCHAR
STARTCHAR egrave
ENCODING 232
SWIDTH 666 0
DWIDTH 6 0
BBX 6 10 0 0
BITMAP
1000
5500
0400
1550
6550
6540
6A90
6540
6550
6A90
ENDCHAR
STARTCHAR eacute
ENCODING 233
SWIDTH 666 0
DWIDTH 6 0
BBX 6 10 0 0
BITMAP
0040
0590
0100
1550
6550
6540
6A90
6540
6550
6A90
ENDCHAR
STARTCHAR ecircumflex
ENCODING 234
SWIDTH 666 0
DWIDTH 6 0
BBX 6 9 0 0
BITMAP
0500
0600
0150
6550
6540
6A90
6540
6550
6A90
ENDCHAR
STARTCHAR edieresis
ENCODING 235
SWIDTH 666 0
DWIDTH 6 0
BBX 6 8 0 0
BITMAP
1540
1550
6550
6540
6A90
6540
6550
6A90
ENDCHAR
STARTCHAR igrave
ENCODING 236
SWIDTH 337 0
DWIDTH 3 0
BBX 4 10 -1 0
BITMAP
40
64
04
04
19
19
19
19
19
19
ENDCHAR
STARTCHAR iacute
ENCODING 237
SWIDTH 337 0
DWIDTH 3 0
BBX 4 10 0 0
BITMAP
01
19
10
10
64
64
64
64
64
64
ENDCHAR
STARTCHAR icircumflex
ENCODING 238
SWIDTH 337 0
DWIDTH 3 0
BBX 3 9 0 0
BITMAP
64
64
00
64
64
64
64
64
64
ENDCHAR
STARTCHAR idieresis
ENCODING 239
SWIDTH 337 0
DWIDTH 3 0
BBX 5 8 -1 0
BITMAP
5140
1500
1900
1900
1900
1900
1900
1900
ENDCHAR
STARTCHAR eth
ENCODING 240
SWIDTH 783 0
DWIDTH 7 0
BBX 7 9 0 -1
BITMAP
0540
1A60
05A4
1564
5A64
6564
6A94
1590
0500
ENDCHAR
STARTCHAR ntilde
ENCODING 241
SWIDTH 787 0
DWIDTH 7 0
BBX 7 9 0 0
BITMAP
1550
1690
0410
6524
6624
6964
65A4
61A4
6198
ENDCHAR
STARTCHAR ograve
ENCODING 242
SWIDTH 833 0
DWIDTH 8 0
BBX 7 11 0 -1
BITMAP
1000
1900
0100
0540
1694
5958
6428
6458
56A4
1950
0140
ENDCHAR
STARTCHAR oacute
ENCODING 243
SWIDTH 833 0
DWIDTH 8 0
BBX 7 11 0 -1
BITMAP
0010
0154
0140
0540
1694
5958
6428
6458
56A4
1950
0140
ENDCHAR
STARTCHAR ocircumflex
ENCODING 244
SWIDTH 833 0
DWIDTH 8 0
BBX 7 10 0 -1
BITMAP
0240
0540
0540
1694
5958
6428
6458
56A4
1950
0140
ENDCHAR
STARTCHAR otilde
ENCODING 245
SWIDTH 833 0
DWIDTH 8 0
BBX 7 10 0 -1
BITMAP
1554
1690
0540
1694
5958
6428
6458
56A4
1950
0140
ENDCHAR
STARTCHAR odieresis
ENCODING 246
SWIDTH 833 0
DWIDTH 8 0
BBX 7 9 0 -1
BITMAP
1450
0550
1694
5958
6428
6458
56A4
1950
0140
ENDCHAR
STARTCHAR divide
ENCODING 247
SWIDTH 260 0
DWIDTH 2 0
BBX 3 6 0 0
BITMAP
50
60
54
54
60
50
ENDCHAR
STARTCHAR oslash
ENCODING 248
SWIDTH 832 0
DWIDTH 8 0
BBX 7 8 0 -1
BITMAP
0554
1694
5958
6428
6458
56A4
1950
1540
ENDCHAR
STARTCHAR ugrave
ENCODING 249
SWIDTH 795 0
DWIDTH 7 0
BBX 7 11 0 -1
BITMAP
1000
1900
0100
1000
6464
6464
6464
6464
5A94
1990
0100
ENDCHAR
STARTCHAR uacute
ENCODING 250
SWIDTH 795 0
DWIDTH 7 0
BBX 7 11 0 -1
BITMAP
0010
0190
0100
1000
6464
6464
6464
6464
5A94
1990
0100
ENDCHAR
STARTCHAR ucircumflex
ENCODING 251
SWIDTH 795 0
DWIDTH 7 0
BBX 7 10 0 -1
BITMAP
0240
0540
1000
6464
6464
6464
6464
5A94
1990
0100
ENDCHAR
STARTCHAR udieresis
ENCODING 252
SWIDTH 795 0
DWIDTH 7 0
BBX 7 9 0 -1
BITMAP
1450
1450
6464
6464
6464
6464
5A94
1990
0100
ENDCHAR
STARTCHAR yacute
ENCODING 253
SWIDTH 733 0
DWIDTH 7 0
BBX 6 10 0 0
BITMAP
0010
0190
0100
0040
58A0
2590
1680
0A40
0640
0640
ENDCHAR
STARTCHAR thorn
ENCODING 254
SWIDTH 833 0
DWIDTH 8 0
BBX 7 9 0 -1
BITMAP
1000
6400
6550
6554
6698
6558
6694
6550
6400
ENDCHAR
STARTCHAR ydieresis
ENCODING 255
SWIDTH 733 0
DWIDTH 7 0
BBX 6 8 0 0
BITMAP
1450
1450
58A0
2590
1680
0A40
0640
0640
ENDCHAR
STARTCHAR Amacron
ENCODING 256
SWIDTH 936 0
DWIDTH 8 0
BBX 8 8 0 0
BITMAP
0100
0590
0660
0994
1658
2565
5999
6416
ENDCHAR
STARTCHAR amacron
ENCODING 257
SWIDTH 832 0
DWIDTH 7 0
BBX 7 7 0 0
BITMAP
0540
1650
5994
6458
6428
6668
1968
ENDCHAR
STARTCHAR Abreve
ENCODING 258
SWIDTH 936 0
DWIDTH 8 0
BBX 8 9 0 0
BITMAP
0190
0100
0590
0660
0994
1658
2565
5999
6416
ENDCHAR
STARTCHAR abreve
ENCODING 259
SWIDTH 832 0
DWIDTH 7 0
BBX 7 8 0 0
BITMAP
0640
0540
1650
5994
6458
6428
6668
1968
ENDCHAR
STARTCHAR Aogonek
ENCODING 260
SWIDTH 937 0
DWIDTH 8 0
BBX 8 11 0 -3
BITMAP
0100
0590
0664
09A4
1658
1965
5699
6556
0500
0540
0500
ENDCHAR
STARTCHAR aogonek
ENCODING 261
SWIDTH 832 0
DWIDTH 7 0
BBX 7 10 0 -3
BITMAP
0540
1650
5994
6458
6428
6668
1A68
0500
0900
0500
ENDCHAR
STARTCHAR Cacute
ENCODING 262
SWIDTH 852 0
DWIDTH 8 0
BBX 7 12 0 -1
BITMAP
0004
0064
0040
0550
1A94
6964
6400
6400
6410
2694
1964
0140
ENDCHAR
STARTCHAR cacute
ENCODING 263
SWIDTH 736 0
DWIDTH 7 0
BBX 7 11 0 -1
BITMAP
0010
0154
0140
0540
16A0
5950
6400
6400
5690
1960
0140
ENDCHAR
STARTCHAR Cdotaccent
ENCODING 266
SWIDTH 852 0
DWIDTH 8 0
BBX 7 11 0 -1
BITMAP
0040
0140
0590
1A94
6964
6400
6400
6410
2694
1964
0140
ENDCHAR
STARTCHAR cdotaccent
ENCODING 267
SWIDTH 736 0
DWIDTH 7 0
BBX 6 10 0 -1
BITMAP
0100
0140
0640
16A0
5950
6400
6400
5690
1960
0140
ENDCHAR
STARTCHAR Ccaron
ENCODING 268
SWIDTH 852 0
DWIDTH 8 0
BBX 7 11 0 -1
BITMAP
0250
0180
0550
1A94
6964
6400
6400
6410
2694
1964
0140
ENDCHAR
STARTCHAR ccaron
ENCODING 269
SWIDTH 736 0
DWIDTH 7 0
BBX 6 10 0 -1
BITMAP
0540
0240
0540
16A0
5950
6400
6400
5690
1960
0140
ENDCHAR
STARTCHAR Dcaron
ENCODING 270
SWIDTH 886 0
DWIDTH 8 0
BBX 8 10 0 0
BITMAP
0150
0180
1540
5564
6A99
6419
6419
6555
6568
6A90
ENDCHAR
STARTCHAR dcaron
ENCODING 271
SWIDTH 1084 0
DWIDTH 10 0
BBX 10 7 0 0
BITMAP
554050
556450
6A9850
645940
655800
656400
6A9000
ENDCHAR
STARTCHAR Dcroat
ENCODING 272
SWIDTH 888 0
DWIDTH 8 0
BBX 8 8 0 0
BITMAP
1540
5564
6A99
6519
6419
6565
6568
6A90
ENDCHAR
STARTCHAR dcroat
ENCODING 273
SWIDTH 833 0
DWIDTH 8 0
BBX 7 7 0 0
BITMAP
5540
5564
6A98
6558
6558
6564
6A90
ENDCHAR
STARTCHAR Emacron
ENCODING 274
SWIDTH 706 0
DWIDTH 6 0
BBX 6 8 0 0
BITMAP
1550
6550
6550
6500
6500
6400
6550
6AA0
ENDCHAR
STARTCHAR emacron
ENCODING 275
SWIDTH 666 0
DWIDTH 6 0
BBX 6 7 0 0
BITMAP
1550
6550
6540
6A90
6540
6550
6A90
ENDCHAR
STARTCHAR Ebreve
ENCODING 276
SWIDTH 706 0
DWIDTH 6 0
BBX 6 9 0 0
BITMAP
0640
1550
6550
6550
6500
6500
6400
6550
6AA0
ENDCHAR
STARTCHAR ebreve
ENCODING 277
SWIDTH 666 0
DWIDTH 6 0
BBX 6 8 0 0
BITMAP
0500
1550
6550
6540
6A90
6540
6550
6A90
ENDCHAR
STARTCHAR Edotaccent
ENCODING 278
SWIDTH 706 0
DWIDTH 6 0
BBX 6 10 0 0
BITMAP
0600
0500
1550
6550
6550
6500
6500
6400
6550
6AA0
ENDCHAR
STARTCHAR edotaccent
ENCODING 279
SWIDTH 666 0
DWIDTH 6 0
BBX 6 9 0 0
BITMAP
0500
0500
1550
6550
6540
6A90
6540
6550
6A90
ENDCHAR
STARTCHAR Eogonek
ENCODING 280
SWIDTH 706 0
DWIDTH 6 0
BBX 6 11 0 -3
BITMAP
1550
6550
6550
6500
6500
6400
6550
6AB0
0050
0060
0050
ENDCHAR
STARTCHAR eogonek
ENCODING 281
SWIDTH 666 0
DWIDTH 6 0
BBX 6 10 0 -3
BITMAP
1550
6550
6540
6A90
6540
6550
6AA0
0050
0090
0050
ENDCHAR
STARTCHAR Ecaron
ENCODING 282
SWIDTH 706 0
DWIDTH 6 0
BBX 6 10 0 0
BITMAP
0940
0600
1550
6550
6550
6500
6500
6400
6550
6AA0
ENDCHAR
STARTCHAR ecaron
ENCODING 283
SWIDTH 666 0
DWIDTH 6 0
BBX 6 9 0 0
BITMAP
0540
0900
1550
6550
6540
6A90
6540
6550
6A90
ENDCHAR
STARTCHAR Gbreve
ENCODING 286
SWIDTH 908 0
DWIDTH 8 0
BBX 8 10 0 -1
BITMAP
0190
0550
1A94
6964
6400
6415
6416
26A6
1966
0140
ENDCHAR
STARTCHAR gbreve
ENCODING 287
SWIDTH 827 0
DWIDTH 7 0
BBX 7 9 0 -1
BITMAP
0640
0540
16A0
5950
6400
6458
5698
1998
0140
ENDCHAR
STARTCHAR Gdotaccent
ENCODING 288
SWIDTH 908 0
DWIDTH 8 0
BBX 8 11 0 -1
BITMAP
0040
0140
0590
1A94
6964
6400
6415
6416
26A6
1966
0140
ENDCHAR
STARTCHAR gdotaccent
ENCODING 289
SWIDTH 827 0
DWIDTH 7 0
BBX 7 10 0 -1
BITMAP
0100
0140
0640
16A0
5950
6400
6458
5698
1998
0140
ENDCHAR
STARTCHAR Gcommaaccent
ENCODING 290
SWIDTH 908 0
DWIDTH 8 0
BBX 8 12 0 -4
BITMAP
0550
1A94
6964
6400
6415
6416
26A6
1966
0180
0180
0180
0140
ENDCHAR
STARTCHAR gcommaaccent
ENCODING 291
SWIDTH 827 0
DWIDTH 7 0
BBX 7 8 0 -1
BITMAP
0540
16A0
5950
6400
6458
5698
1998
0140
ENDCHAR
STARTCHAR Hcircumflex
ENCODING 292
SWIDTH 901 0
DWIDTH 8 0
BBX 8 10 0 0
BITMAP
0140
0180
1000
6419
6419
6559
6569
6419
6419
6419
ENDCHAR
STARTCHAR hcircumflex
ENCODING 293
SWIDTH 830 0
DWIDTH 7 0
BBX 7 9 0 0
BITMAP
0240
0540
1004
6418
6458
6A98
6558
6418
6418
ENDCHAR
STARTCHAR Hbar
ENCODING 294
SWIDTH 901 0
DWIDTH 8 0
BBX 8 8 0 0
BITMAP
1000
6559
6559
6559
6569
6419
6419
6419
ENDCHAR
STARTCHAR hbar
ENCODING 295
SWIDTH 830 0
DWIDTH 7 0
BBX 8 7 0 0
BITMAP
1004
6518
6559
6A98
6558
6418
6418
ENDCHAR
STARTCHAR Itilde
ENCODING 296
SWIDTH 338 0
DWIDTH 3 0
BBX 5 10 -1 0
BITMAP
5540
5A40
0400
1900
1900
1900
1900
1900
1900
1900
ENDCHAR
STARTCHAR itilde
ENCODING 297
SWIDTH 337 0
DWIDTH 3 0
BBX 5 9 -1 0
BITMAP
5540
5A40
0400
1900
1900
1900
1900
1900
1900
ENDCHAR
STARTCHAR Imacron
ENCODING 298
SWIDTH 338 0
DWIDTH 3 0
BBX 3 8 0 0
BITMAP
10
64
64
64
64
64
64
64
ENDCHAR
STARTCHAR imacron
ENCODING 299
SWIDTH 337 0
DWIDTH 3 0
BBX 3 7 0 0
BITMAP
10
64
64
64
64
64
64
ENDCHAR
STARTCHAR Ibreve
ENCODING 300
SWIDTH 338 0
DWIDTH 3 0
BBX 3 9 0 0
BITMAP
64
10
64
64
64
64
64
64
64
ENDCHAR
STARTCHAR ibreve
ENCODING 301
SWIDTH 337 0
DWIDTH 3 0
BBX 3 8 0 0
BITMAP
64
10
64
64
64
64
64
64
ENDCHAR
STARTCHAR Iogonek
ENCODING 302
SWIDTH 338 0
DWIDTH 3 0
BBX 3 11 0 -3
BITMAP
10
64
64
64
64
64
64
64
24
24
14
ENDCHAR
STARTCHAR iogonek
ENCODING 303
SWIDTH 337 0
DWIDTH 3 0
BBX 3 10 0 -3
BITMAP
10
64
64
64
64
64
64
14
24
14
ENDCHAR
STARTCHAR Idotaccent
ENCODING 304
SWIDTH 338 0
DWIDTH 3 0
BBX 3 10 0 0
BITMAP
10
10
54
64
64
64
64
64
64
64
ENDCHAR
STARTCHAR dotlessi
ENCODING 305
SWIDTH 337 0
DWIDTH 3 0
BBX 3 7 0 0
BITMAP
10
64
64
64
64
64
64
ENDCHAR
STARTCHAR IJ
ENCODING 306
SWIDTH 774 0
DWIDTH 7 0
BBX 7 9 0 -1
BITMAP
1010
6464
6464
6464
6464
6464
6594
6590
0100
ENDCHAR
STARTCHAR ij
ENCODING 307
SWIDTH 729 0
DWIDTH 7 0
BBX 7 8 0 -1
BITMAP
1040
6494
6494
6494
6494
6560
6550
0140
ENDCHAR
STARTCHAR Jcircumflex
ENCODING 308
SWIDTH 434 0
DWIDTH 4 0
BBX 4 11 0 -1
BITMAP
18
15
00
19
19
19
19
19
65
64
40
ENDCHAR
STARTCHAR jcircumflex
ENCODING 309
SWIDTH 393 0
DWIDTH 4 0
BBX 3 10 0 -1
BITMAP
14
18
00
24
24
24
24
58
54
50
ENDCHAR
STARTCHAR Kcommaaccent
ENCODING 310
SWIDTH 815 0
DWIDTH 7 0
BBX 7 12 0 -4
BITMAP
1004
6464
6554
6590
6650
6590
6494
6468
0100
0240
0140
0100
ENDCHAR
STARTCHAR kcommaaccent
ENCODING 311
SWIDTH 801 0
DWIDTH 7 0
BBX 7 11 0 -4
BITMAP
1004
64A4
6560
6650
6590
6564
6464
0100
0240
0140
0100
ENDCHAR
STARTCHAR kgreenlandic
ENCODING 312
SWIDTH 801 0
DWIDTH 7 0
BBX 7 7 0 0
BITMAP
1004
64A4
6560
6650
6590
6564
6464
ENDCHAR
STARTCHAR Lacute
ENCODING 313
SWIDTH 604 0
DWIDTH 5 0
BBX 6 11 0 0
BITMAP
0040
0550
0100
1000
6400
6400
6400
6400
6400
6540
6A80
ENDCHAR
STARTCHAR lacute
ENCODING 314
SWIDTH 583 0
DWIDTH 5 0
BBX 5 10 0 0
BITMAP
0100
1900
1000
1000
6400
6400
6400
6400
6540
6A80
ENDCHAR
STARTCHAR Lcommaaccent
ENCODING 315
SWIDTH 604 0
DWIDTH 5 0
BBX 5 12 0 -4
BITMAP
1000
6400
6400
6400
6400
6400
6540
6A80
0400
0900
0500
0400
ENDCHAR
STARTCHAR lcommaaccent
ENCODING 316
SWIDTH 583 0
DWIDTH 5 0
BBX 5 11 0 -4
BITMAP
1000
6400
6400
6400
6400
6540
6A80
0400
0900
0500
0400
ENDCHAR
STARTCHAR Lcaron
ENCODING 317
SWIDTH 856 0
DWIDTH 8 0
BBX 8 8 0 0
BITMAP
1005
6405
6405
6400
6400
6400
6540
6A80
ENDCHAR
STARTCHAR lcaron
ENCODING 318
SWIDTH 584 0
DWIDTH 5 0
BBX 5 7 0 0
BITMAP
1140
6580
6540
6400
6400
6540
6A80
ENDCHAR
STARTCHAR Ldot
ENCODING 319
SWIDTH 604 0
DWIDTH 5 0
BBX 5 8 0 0
BITMAP
1000
6400
6400
6540
6540
6400
6540
6A80
ENDCHAR
STARTCHAR ldot
ENCODING 320
SWIDTH 582 0
DWIDTH 5 0
BBX 5 7 0 0
BITMAP
1000
6400
6540
6540
6400
6540
6A80
ENDCHAR
STARTCHAR Lslash
ENCODING 321
SWIDTH 604 0
DWIDTH 5 0
BBX 6 8 -1 0
BITMAP
0400
1900
1940
1900
5900
5900
1950
1AA0
ENDCHAR
STARTCHAR lslash
ENCODING 322
SWIDTH 581 0
DWIDTH 5 0
BBX 6 7 -1 0
BITMAP
0400
1900
1980
5940
1900
1950
1AA0
ENDCHAR
STARTCHAR Nacute
ENCODING 323
SWIDTH 877 0
DWIDTH 8 0
BBX 8 11 0 0
BITMAP
0010
0154
0040
0400
6519
6619
6A59
6559
65A5
6495
6459
ENDCHAR
STARTCHAR nacute
ENCODING 324
SWIDTH 787 0
DWIDTH 7 0
BBX 7 10 0 0
BITMAP
0010
0190
0100
0410
6524
6624
6964
65A4
61A4
6198
ENDCHAR
STARTCHAR Ncommaaccent
ENCODING 325
SWIDTH 877 0
DWIDTH 8 0
BBX 8 12 0 -4
BITMAP
0400
6519
6619
6A59
6559
65A5
6495
6459
0100
0240
0140
0100
ENDCHAR
STARTCHAR ncommaaccent
ENCODING 326
SWIDTH 787 0
DWIDTH 7 0
BBX 7 11 0 -4
BITMAP
0410
6524
6624
6964
65A4
61A4
6198
0000
0540
0140
0100
ENDCHAR
STARTCHAR Ncaron
ENCODING 327
SWIDTH 877 0
DWIDTH 8 0
BBX 8 10 0 0
BITMAP
0540
0240
0400
6519
6619
6A59
6559
65A5
6495
6459
ENDCHAR
STARTCHAR ncaron
ENCODING 328
SWIDTH 787 0
DWIDTH 7 0
BBX 7 9 0 0
BITMAP
0540
0540
0510
6524
6624
6964
65A4
61A4
6198
ENDCHAR
STARTCHAR Eng
ENCODING 330
SWIDTH 874 0
DWIDTH 8 0
BBX 8 11 0 -3
BITMAP
0400
6519
6659
6659
6659
6559
6499
6455
0065
0064
0050
ENDCHAR
STARTCHAR eng
ENCODING 331
SWIDTH 691 0
DWIDTH 6 0
BBX 6 10 0 -3
BITMAP
0400
6560
66A0
6A60
6560
6160
6160
0090
0150
0040
ENDCHAR
STARTCHAR Omacron
ENCODING 332
SWIDTH 933 0
DWIDTH 8 0
BBX 8 9 0 -1
BITMAP
0550
1A98
6969
6416
640A
6416
26A9
1964
0140
ENDCHAR
STARTCHAR omacron
ENCODING 333
SWIDTH 833 0
DWIDTH 8 0
BBX 7 8 0 -1
BITMAP
0540
1694
5958
6428
6458
56A4
1950
0140
ENDCHAR
STARTCHAR Obreve
ENCODING 334
SWIDTH 933 0
DWIDTH 8 0
BBX 8 10 0 -1
BITMAP
0190
0550
1A98
6969
6416
640A
6416
26A9
1964
0140
ENDCHAR
STARTCHAR obreve
ENCODING 335
SWIDTH 833 0
DWIDTH 8 0
BBX 7 9 0 -1
BITMAP
0640
0540
1694
5958
6428
6458
56A4
1950
0140
ENDCHAR
STARTCHAR Ohungarumlaut
ENCODING 336
SWIDTH 933 0
DWIDTH 8 0
BBX 9 12 0 -1
BITMAP
004100
065540
040400
055000
1A9800
696900
641600
640A00
641600
26A900
196400
014000
ENDCHAR
STARTCHAR ohungarumlaut
ENCODING 337
SWIDTH 833 0
DWIDTH 8 0
BBX 8 11 0 -1
BITMAP
0001
0659
0410
0540
1694
5958
6428
6458
56A4
1950
0140
ENDCHAR
STARTCHAR OE
ENCODING 338
SWIDTH 1317 0
DWIDTH 12 0
BBX 12 9 0 -1
BITMAP
055054
1A9955
695954
641550
640990
641940
2A9954
1965A9
014000
ENDCHAR
STARTCHAR oe
ENCODING 339
SWIDTH 1174 0
DWIDTH 11 0
BBX 10 8 0 -1
BITMAP
054150
144650
512550
4406A0
445550
545550
1946A0
014000
ENDCHAR
STARTCHAR Racute
ENCODING 340
SWIDTH 843 0
DWIDTH 8 0
BBX 8 11 0 0
BITMAP
0040
0640
0400
1540
5564
6A94
6565
6558
66A4
6494
6464
ENDCHAR
STARTCHAR Rcommaaccent
ENCODING 342
SWIDTH 843 0
DWIDTH 8 0
BBX 8 12 0 -4
BITMAP
1540
5564
6A94
6565
6558
66A4
6494
6464
0100
0140
0140
0100
ENDCHAR
STARTCHAR rcommaaccent
ENCODING 343
SWIDTH 831 0
DWIDTH 7 0
BBX 7 11 0 -4
BITMAP
5540
5564
6A98
6568
6698
65A0
6494
0000
0540
0140
0100
ENDCHAR
STARTCHAR Rcaron
ENCODING 344
SWIDTH 843 0
DWIDTH 8 0
BBX 8 10 0 0
BITMAP
1500
1500
1540
5564
6A94
6565
6558
66A4
6494
6464
ENDCHAR
STARTCHAR rcaron
ENCODING 345
SWIDTH 831 0
DWIDTH 7 0
BBX 7 9 0 0
BITMAP
0580
0240
5540
5564
6A98
6568
6698
65A0
6494
ENDCHAR
STARTCHAR Sacute
ENCODING 346
SWIDTH 682 0
DWIDTH 6 0
BBX 6 11 0 -1
BITMAP
0190
0100
1540
5A50
6540
6540
5650
0590
1A90
6590
0500
ENDCHAR
STARTCHAR sacute
ENCODING 347
SWIDTH 683 0
DWIDTH 6 0
BBX 6 9 0 0
BITMAP
0190
0100
0540
5550
6440
5A40
1590
1550
6A90
ENDCHAR
STARTCHAR Scircumflex
ENCODING 348
SWIDTH 682 0
DWIDTH 6 0
BBX 6 11 0 -1
BITMAP
0500
0600
0540
5A50
6540
6540
5650
0590
1A90
6590
0500
ENDCHAR
STARTCHAR scircumflex
ENCODING 349
SWIDTH 683 0
DWIDTH 6 0
BBX 6 9 0 0
BITMAP
0500
0600
0540
5550
6440
5A40
1590
1550
6A90
ENDCHAR
STARTCHAR Scedilla
ENCODING 350
SWIDTH 682 0
DWIDTH 6 0
BBX 6 12 0 -4
BITMAP
1540
5A50
6540
6540
5650
0590
1A90
6590
0500
1500
1400
0400
ENDCHAR
STARTCHAR scedilla
ENCODING 351
SWIDTH 683 0
DWIDTH 6 0
BBX 6 11 0 -4
BITMAP
0540
5550
6440
5A40
1590
1550
6A90
0500
1500
1500
0500
ENDCHAR
STARTCHAR Scaron
ENCODING 352
SWIDTH 682 0
DWIDTH 6 0
BBX 6 11 0 -1
BITMAP
0540
0600
1540
5A50
6540
6540
5650
0590
1A90
6590
0500
ENDCHAR
STARTCHAR scaron
ENCODING 353
SWIDTH 683 0
DWIDTH 6 0
BBX 6 9 0 0
BITMAP
0540
0600
0540
5550
6440
5A40
1590
1550
6A90
ENDCHAR
STARTCHAR Tcommaaccent
ENCODING 354
SWIDTH 591 0
DWIDTH 5 0
BBX 5 11 0 -3
BITMAP
5540
5540
6A40
1900
1900
1900
1900
1900
1400
2400
0400
ENDCHAR
STARTCHAR tcommaaccent
ENCODING 355
SWIDTH 588 0
DWIDTH 5 0
BBX 5 10 0 -3
BITMAP
5540
5540
5A40
1900
1900
1900
1900
2400
2400
0400
ENDCHAR
STARTCHAR Tcaron
ENCODING 356
SWIDTH 591 0
DWIDTH 5 0
BBX 5 10 0 0
BITMAP
1500
0900
5540
5540
6A40
1900
1900
1900
1900
1900
ENDCHAR
STARTCHAR tcaron
ENCODING 357
SWIDTH 842 0
DWIDTH 8 0
BBX 8 7 0 0
BITMAP
5554
5555
5A44
1900
1900
1900
1900
ENDCHAR
STARTCHAR Tbar
ENCODING 358
SWIDTH 591 0
DWIDTH 5 0
BBX 5 8 0 0
BITMAP
5540
5540
6A40
5940
1900
1900
1900
1900
ENDCHAR
STARTCHAR tbar
ENCODING 359
SWIDTH 588 0
DWIDTH 5 0
BBX 5 7 0 0
BITMAP
5540
5540
5A40
5940
5940
5940
1900
ENDCHAR
STARTCHAR Utilde
ENCODING 360
SWIDTH 905 0
DWIDTH 8 0
BBX 8 11 0 -1
BITMAP
0554
16A4
1000
6419
6419
6419
6419
5419
2A95
1964
0140
ENDCHAR
STARTCHAR utilde
ENCODING 361
SWIDTH 795 0
DWIDTH 7 0
BBX 7 10 0 -1
BITMAP
1550
1690
1000
6464
6464
6464
6464
5A94
1990
0100
ENDCHAR
STARTCHAR Umacron
ENCODING 362
SWIDTH 905 0
DWIDTH 8 0
BBX 8 9 0 -1
BITMAP
1000
6419
6419
6419
6419
5419
2A95
1964
0140
ENDCHAR
STARTCHAR umacron
ENCODING 363
SWIDTH 795 0
DWIDTH 7 0
BBX 7 8 0 -1
BITMAP
1000
6464
6464
6464
6464
5A94
1990
0100
ENDCHAR
STARTCHAR Ubreve
ENCODING 364
SWIDTH 905 0
DWIDTH 8 0
BBX 8 10 0 -1
BITMAP
0180
1000
6419
6419
6419
6419
5419
2A95
1964
0140
ENDCHAR
STARTCHAR ubreve
ENCODING 365
SWIDTH 795 0
DWIDTH 7 0
BBX 7 9 0 -1
BITMAP
0640
1000
6464
6464
6464
6464
5A94
1990
0100
ENDCHAR
STARTCHAR Uring
ENCODING 366
SWIDTH 905 0
DWIDTH 8 0
BBX 8 11 0 -1
BITMAP
0140
0140
1000
6419
6419
6419
6419
5419
2A95
1964
0140
ENDCHAR
STARTCHAR uring
ENCODING 367
SWIDTH 795 0
DWIDTH 7 0
BBX 7 11 0 -1
BITMAP
0100
0540
0640
1000
6464
6464
6464
6464
5A94
1990
0100
ENDCHAR
STARTCHAR Uhungarumlaut
ENCODING 368
SWIDTH 905 0
DWIDTH 8 0
BBX 9 12 0 -1
BITMAP
004100
065540
041400
100000
641900
641900
641900
641900
541900
2A9500
196400
014000
ENDCHAR
STARTCHAR uhungarumlaut
ENCODING 369
SWIDTH 795 0
DWIDTH 7 0
BBX 8 11 0 -1
BITMAP
0101
1559
0410
1000
6464
6464
6464
6464
5A94
1990
0100
ENDCHAR
STARTCHAR Uogonek
ENCODING 370
SWIDTH 905 0
DWIDTH 8 0
BBX 8 11 0 -3
BITMAP
1000
6419
6419
6419
6419
5419
2A95
1A64
0640
0540
0100
ENDCHAR
STARTCHAR uogonek
ENCODING 371
SWIDTH 794 0
DWIDTH 7 0
BBX 7 10 0 -3
BITMAP
1000
6464
6464
6464
6464
5A94
1A90
0A00
0900
0500
ENDCHAR
STARTCHAR Ycircumflex
ENCODING 374
SWIDTH 789 0
DWIDTH 7 0
BBX 7 10 0 0
BITMAP
0240
0540
0000
6464
25A0
1990
0640
0640
0640
0640
ENDCHAR
STARTCHAR ycircumflex
ENCODING 375
SWIDTH 733 0
DWIDTH 7 0
BBX 6 9 0 0
BITMAP
0600
0540
0000
58A0
2590
1680
0A40
0640
0640
ENDCHAR
STARTCHAR Ydieresis
ENCODING 376
SWIDTH 789 0
DWIDTH 7 0
BBX 7 9 0 0
BITMAP
1450
1450
6464
25A0
1990
0640
0640
0640
0640
ENDCHAR
STARTCHAR Zacute
ENCODING 377
SWIDTH 854 0
DWIDTH 8 0
BBX 8 11 0 0
BITMAP
0010
0154
0040
5554
5555
6964
0154
1690
5654
6554
6AA9
ENDCHAR
STARTCHAR zacute
ENCODING 378
SWIDTH 714 0
DWIDTH 6 0
BBX 6 10 0 0
BITMAP
0010
0190
0100
5500
5590
5550
0A40
1600
6550
6AA0
ENDCHAR
STARTCHAR Zdotaccent
ENCODING 379
SWIDTH 854 0
DWIDTH 8 0
BBX 8 10 0 0
BITMAP
0140
0140
5654
5555
6964
0154
1690
5654
6554
6AA9
ENDCHAR
STARTCHAR zdotaccent
ENCODING 380
SWIDTH 714 0
DWIDTH 6 0
BBX 6 9 0 0
BITMAP
0100
0500
5600
5590
5550
0A40
1600
6550
6AA0
ENDCHAR
STARTCHAR Zcaron
ENCODING 381
SWIDTH 854 0
DWIDTH 8 0
BBX 8 10 0 0
BITMAP
0580
0240
5554
5555
6964
0154
1690
5654
6554
6AA9
ENDCHAR
STARTCHAR zcaron
ENCODING 382
SWIDTH 714 0
DWIDTH 6 0
BBX 6 9 0 0
BITMAP
0940
0600
5500
5590
5550
0A40
1600
6550
6AA0
ENDCHAR
STARTCHAR florin
ENCODING 402
SWIDTH 388 0
DWIDTH 4 0
BBX 3 9 0 -1
BITMAP
04
28
24
68
64
24
24
54
50
ENDCHAR
STARTCHAR uni01C4
ENCODING 452
SWIDTH 1740 0
DWIDTH 16 0
BBX 16 10 0 0
BITMAP
00000580
00000240
15405554
55645555
6A996964
64190154
64191690
65555654
65686554
6A906AA9
ENDCHAR
STARTCHAR uni01C5
ENCODING 453
SWIDTH 1601 0
DWIDTH 14 0
BBX 14 9 0 0
BITMAP
00000940
15400600
55645500
6A995590
64195550
64190A40
65551600
65686550
6A906AA0
ENDCHAR
STARTCHAR Scommaaccent
ENCODING 536
SWIDTH 682 0
DWIDTH 6 0
BBX 6 12 0 -4
BITMAP
1540
5A50
6540
6540
5650
0590
1A90
6590
0500
0500
0500
0400
ENDCHAR
STARTCHAR scommaaccent
ENCODING 537
SWIDTH 683 0
DWIDTH 6 0
BBX 6 11 0 -4
BITMAP
0540
5550
6440
5A40
1590
1550
6A90
0500
0500
0500
0400
ENDCHAR
STARTCHAR uni021A
ENCODING 538
SWIDTH 591 0
DWIDTH 5 0
BBX 5 12 0 -4
BITMAP
5540
5540
6A40
1900
1900
1900
1900
1900
0400
0500
0500
0400
ENDCHAR
STARTCHAR uni021B
ENCODING 539
SWIDTH 588 0
DWIDTH 5 0
BBX 5 11 0 -4
BITMAP
5540
5540
5A40
1900
1900
1900
1900
0400
0500
0500
0400
ENDCHAR
STARTCHAR uni0237
ENCODING 567
SWIDTH 393 0
DWIDTH 4 0
BBX 3 8 0 -1
BITMAP
10
24
24
24
24
58
54
50
ENDCHAR
STARTCHAR circumflex
ENCODING 710
SWIDTH 376 0
DWIDTH 3 0
BBX 3 2 0 7
BITMAP
24
54
ENDCHAR
STARTCHAR caron
ENCODING 711
SWIDTH 362 0
DWIDTH 3 0
BBX 3 2 0 7
BITMAP
54
64
ENDCHAR
STARTCHAR breve
ENCODING 728
SWIDTH 360 0
DWIDTH 3 0
BBX 3 1 0 7
BITMAP
64
ENDCHAR
STARTCHAR dotaccent
ENCODING 729
SWIDTH 255 0
DWIDTH 2 0
BBX 2 3 0 5
BITMAP
50
50
50
ENDCHAR
STARTCHAR ring
ENCODING 730
SWIDTH 330 0
DWIDTH 3 0
BBX 3 3 0 7
BITMAP
10
54
64
ENDCHAR
STARTCHAR ogonek
ENCODING 731
SWIDTH 250 0
DWIDTH 2 0
BBX 2 4 0 -3
BITMAP
10
50
60
50
ENDCHAR
STARTCHAR tilde
ENCODING 732
SWIDTH 665 0
DWIDTH 6 0
BBX 6 2 0 5
BITMAP
1550
5A90
ENDCHAR
STARTCHAR hungarumlaut
ENCODING 733
SWIDTH 837 0
DWIDTH 8 0
BBX 7 3 0 6
BITMAP
0004
5964
1040
ENDCHAR
STARTCHAR uni0307
ENCODING 775
SWIDTH 260 0
DWIDTH 2 0
BBX 2 2 0 3
BITMAP
60
50
ENDCHAR
STARTCHAR uni030F
ENCODING 783
SWIDTH 554 0
DWIDTH 5 0
BBX 5 3 0 7
BITMAP
5500
5200
2140
ENDCHAR
STARTCHAR uni0311
ENCODING 785
SWIDTH 375 0
DWIDTH 3 0
BBX 3 1 0 7
BITMAP
54
ENDCHAR
STARTCHAR uni0326
ENCODING 806
SWIDTH 274 0
DWIDTH 2 0
BBX 2 4 0 -4
BITMAP
10
60
60
50
ENDCHAR
STARTCHAR Omega
ENCODING 937
SWIDTH 92 0
DWIDTH 1 0
BBX 1 1 0 0
BITMAP
00
ENDCHAR
STARTCHAR uni00B5.dup2
ENCODING 956
SWIDTH 802 0
DWIDTH 7 0
BBX 7 8 0 -1
BITMAP
1004
6458
6458
6458
6454
66A4
6590
6500
ENDCHAR
STARTCHAR pi
ENCODING 960
SWIDTH 92 0
DWIDTH 1 0
BBX 1 1 0 0
BITMAP
00
ENDCHAR
STARTCHAR endash
ENCODING 8211
SWIDTH 473 0
DWIDTH 4 0
BBX 4 2 0 3
BITMAP
55
55
ENDCHAR
STARTCHAR emdash
ENCODING 8212
SWIDTH 615 0
DWIDTH 6 0
BBX 5 2 0 3
BITMAP
5540
5540
ENDCHAR
STARTCHAR quoteleft
ENCODING 8216
SWIDTH 254 0
DWIDTH 2 0
BBX 2 4 0 4
BITMAP
10
50
60
50
ENDCHAR
STARTCHAR quoteright
ENCODING 8217
SWIDTH 251 0
DWIDTH 2 0
BBX 2 4 0 4
BITMAP
10
60
60
50
ENDCHAR
STARTCHAR quotesinglbase
ENCODING 8218
SWIDTH 252 0
DWIDTH 2 0
BBX 2 3 0 -1
BITMAP
50
60
50
ENDCHAR
STARTCHAR quotedblleft
ENCODING 8220
SWIDTH 535 0
DWIDTH 5 0
BBX 5 4 0 4
BITMAP
1000
5200
6240
5140
ENDCHAR
STARTCHAR quotedblright
ENCODING 8221
SWIDTH 532 0
DWIDTH 5 0
BBX 5 4 0 4
BITMAP
1000
6240
6140
5100
ENDCHAR
STARTCHAR quotedblbase
ENCODING 8222
SWIDTH 533 0
DWIDTH 5 0
BBX 5 4 0 -2
BITMAP
5140
6140
5140
0100
ENDCHAR
STARTCHAR dagger
ENCODING 8224
SWIDTH 636 0
DWIDTH 6 0
BBX 6 8 0 0
BITMAP
0100
1600
6650
6650
1600
1600
1600
1600
ENDCHAR
STARTCHAR daggerdbl
ENCODING 8225
SWIDTH 648 0
DWIDTH 6 0
BBX 6 7 0 0
BITMAP
0A00
6A90
5A50
0A00
6A90
5A50
0A00
ENDCHAR
STARTCHAR bullet
ENCODING 8226
SWIDTH 501 0
DWIDTH 5 0
BBX 4 4 0 1
BITMAP
69
52
56
15
ENDCHAR
STARTCHAR ellipsis
ENCODING 8230
SWIDTH 676 0
DWIDTH 6 0
BBX 6 2 0 0
BITMAP
5550
6690
ENDCHAR
STARTCHAR perthousand
ENCODING 8240
SWIDTH 447 0
DWIDTH 4 0
BBX 4 8 0 -1
BITMAP
09
15
18
18
24
54
60
60
ENDCHAR
STARTCHAR guilsinglleft
ENCODING 8249
SWIDTH 465 0
DWIDTH 4 0
BBX 4 5 0 1
BITMAP
01
59
65
55
05
ENDCHAR
STARTCHAR guilsinglright
ENCODING 8250
SWIDTH 465 0
DWIDTH 4 0
BBX 4 5 0 1
BITMAP
40
65
59
55
50
ENDCHAR
STARTCHAR fraction
ENCODING 8260
SWIDTH 447 0
DWIDTH 4 0
BBX 4 8 0 -1
BITMAP
09
15
18
18
24
54
60
60
ENDCHAR
STARTCHAR uni2074
ENCODING 8308
SWIDTH 528 0
DWIDTH 5 0
BBX 5 6 0 1
BITMAP
1900
2400
5600
6A40
5500
0100
ENDCHAR
STARTCHAR Euro
ENCODING 8364
SWIDTH 781 0
DWIDTH 7 0
BBX 7 9 0 -1
BITMAP
0154
05A4
1650
6540
6940
2500
15A0
0654
0050
ENDCHAR
STARTCHAR trademark
ENCODING 8482
SWIDTH 1503 0
DWIDTH 14 0
BBX 13 6 0 2
BITMAP
55400040
555A0280
5A554640
05169980
05165980
05156580
ENDCHAR
STARTCHAR partialdiff
ENCODING 8706
SWIDTH 108 0
DWIDTH 1 0
BBX 1 1 0 0
BITMAP
00
ENDCHAR
STARTCHAR uni2206
ENCODING 8710
SWIDTH 108 0
DWIDTH 1 0
BBX 1 1 0 0
BITMAP
00
ENDCHAR
STARTCHAR product
ENCODING 8719
SWIDTH 521 0
DWIDTH 5 0
BBX 5 6 0 0
BITMAP
2900
5600
6540
5540
2500
1900
ENDCHAR
STARTCHAR summation
ENCODING 8721
SWIDTH 108 0
DWIDTH 1 0
BBX 1 1 0 0
BITMAP
00
ENDCHAR
STARTCHAR minus
ENCODING 8722
SWIDTH 555 0
DWIDTH 5 0
BBX 5 2 0 3
BITMAP
5540
6A40
ENDCHAR
STARTCHAR radical
ENCODING 8730
SWIDTH 108 0
DWIDTH 1 0
BBX 1 1 0 0
BITMAP
00
ENDCHAR
STARTCHAR infinity
ENCODING 8734
SWIDTH 108 0
DWIDTH 1 0
BBX 1 1 0 0
BITMAP
00
ENDCHAR
STARTCHAR integral
ENCODING 8747
SWIDTH 362 0
DWIDTH 3 0
BBX 3 9 0 -1
BITMAP
04
28
54
54
54
54
54
94
50
ENDCHAR
STARTCHAR approxequal
ENCODING 8776
SWIDTH 665 0
DWIDTH 6 0
BBX 6 4 0 3
BITMAP
1550
5A90
1550
5A90
ENDCHAR
STARTCHAR notequal
ENCODING 8800
SWIDTH 473 0
DWIDTH 4 0
BBX 4 8 0 -1
BITMAP
09
6A
6E
29
7D
79
60
60
ENDCHAR
STARTCHAR lessequal
ENCODING 8804
SWIDTH 108 0
DWIDTH 1 0
BBX 1 1 0 0
BITMAP
00
ENDCHAR
STARTCHAR greaterequal
ENCODING 8805
SWIDTH 108 0
DWIDTH 1 0
BBX 1 1 0 0
BITMAP
00
ENDCHAR
STARTCHAR lozenge
ENCODING 9674
SWIDTH 521 0
DWIDTH 5 0
BBX 5 6 0 0
BITMAP
2900
5600
6540
5540
2500
1900
ENDCHAR
STARTCHAR uniF8FF
ENCODING 63743
SWIDTH 108 0
DWIDTH 1 0
BBX 1 1 0 0
BITMAP
00
ENDCHAR
STARTCHAR uniFB01
ENCODING 64257
SWIDTH 962 0
DWIDTH 9 0
BBX 9 7 0 0
BITMAP
154400
654940
654940
654940
654940
640940
640940
ENDCHAR
STARTCHAR uniFB02
ENCODING 64258
SWIDTH 1208 0
DWIDTH 11 0
BBX 11 7 0 0
BITMAP
154400
654940
654940
654940
654940
640954
6409A4
ENDCHAR
STARTCHAR .notdef
ENCODING -1
SWIDTH 108 0
DWIDTH 1 0
BBX 1 1 0 0
BITMAP
00
ENDCHAR
ENDFONT
